<?xml version="1.0" encoding="UTF-8"?>
<svg width="336px" height="336px" viewBox="0 0 336 336" version="1.1" xmlns="http://www.w3.org/2000/svg" xmlns:xlink="http://www.w3.org/1999/xlink">
    <!-- Generator: Sketch 51.1 (57501) - http://www.bohemiancoding.com/sketch -->
    <title>Rectangle</title>
    <desc>Created with Sketch.</desc>
    <defs>
        <path d="M164.920711,153.859223 C164.973136,154.433704 165,155.016717 165,155.606796 C165,164.936655 158.284271,172.5 150,172.5 C141.715729,172.5 135,164.936655 135,155.606796 C135,155.016717 135.026864,154.433704 135.079289,153.859223 L135,153.859223 L150,52.5 L165,153.859223 L164.920711,153.859223 Z M150,0 C232.842712,-1.52179594e-14 300,67.1572875 300,150 C300,232.842712 232.842712,300 150,300 C67.1572875,300 1.01453063e-14,232.842712 0,150 C-1.01453063e-14,67.1572875 67.1572875,1.52179594e-14 150,0 Z M150,255.618164 C208.331301,255.618164 255.618164,208.331301 255.618164,150 C255.618164,91.6686987 208.331301,44.3818359 150,44.3818359 C91.6686987,44.3818359 44.3818359,91.6686987 44.3818359,150 C44.3818359,208.331301 91.6686987,255.618164 150,255.618164 Z" id="path-1"></path>
        <filter x="-11.3%" y="-6.7%" width="122.7%" height="122.7%" filterUnits="objectBoundingBox" id="filter-2">
            <feOffset dx="0" dy="14" in="SourceAlpha" result="shadowOffsetOuter1"></feOffset>
            <feGaussianBlur stdDeviation="9" in="shadowOffsetOuter1" result="shadowBlurOuter1"></feGaussianBlur>
            <feColorMatrix values="0 0 0 0 0   0 0 0 0 0   0 0 0 0 0  0 0 0 0.17 0" type="matrix" in="shadowBlurOuter1"></feColorMatrix>
        </filter>
    </defs>
    <g id="Symbols" stroke="none" stroke-width="1" fill="none" fill-rule="evenodd">
        <g id="Logo/Simple-Scales/Normal" transform="translate(18.000000, 4.000000)">
            <g id="Rectangle">
                <use fill="black" fill-opacity="1" filter="url(#filter-2)" xlink:href="#path-1"></use>
                <use fill="#939393" fill-rule="evenodd" xlink:href="#path-1"></use>
            </g>
        </g>
    </g>
</svg>