<?xml version="1.0" encoding="UTF-8"?>
<svg width="330px" height="330px" viewBox="0 0 330 330" version="1.1" xmlns="http://www.w3.org/2000/svg" xmlns:xlink="http://www.w3.org/1999/xlink">
    <!-- Generator: Sketch 51.1 (57501) - http://www.bohemiancoding.com/sketch -->
    <title>Clip 5</title>
    <desc>Created with Sketch.</desc>
    <defs>
        <path d="M150,300 C67.1572768,300 0,232.842717 0,150.000042 C0,67.1572773 67.1572768,0 150,0 C232.842723,0 300,67.1572773 300,150.000042 C300,232.842717 232.842723,300 150,300 Z M149.999998,280.708817 C222.188474,280.708817 280.708752,222.188482 280.708752,150.000039 C280.708752,77.8115115 222.188474,19.291155 149.999998,19.291155 C77.8115018,19.291155 19.2911817,77.8115115 19.2911817,150.000039 C19.2911817,222.188482 77.8115018,280.708817 149.999998,280.708817 Z M203.979219,216.372415 L159.722291,172.041249 C158.199881,170.51617 158.192872,168.032764 159.71773,166.505345 L203.900345,122.248538 C205.420308,120.726023 207.899552,120.723125 209.426968,122.253107 L253.683785,166.584352 C255.206307,168.109319 255.213315,170.592725 253.688457,172.120144 L209.505731,216.377051 C207.985879,217.899511 205.506636,217.902375 203.979219,216.372415 Z M90.5730205,216.372415 L46.3161482,172.041249 C44.7936931,170.51617 44.7866734,168.032764 46.3115092,166.505345 L90.4942022,122.248538 C92.0141098,120.726023 94.4933641,120.723125 96.0207698,122.253107 L140.277598,166.584352 C141.800119,168.109319 141.807128,170.592725 140.28227,172.120144 L96.099588,216.377051 C94.5796804,217.899511 92.1004261,217.902375 90.5730205,216.372415 Z M147.276125,159.669347 L103.019231,115.338103 C101.496776,113.813136 101.489756,111.329729 103.014592,109.802311 L147.197251,65.5453921 C148.717215,64.022988 151.196458,64.0200908 152.723875,65.5500724 L196.980691,109.881205 C198.503213,111.406284 198.510222,113.88969 196.985364,115.417109 L152.802637,159.673916 C151.282785,161.196432 148.803542,161.199329 147.276125,159.669347 Z" id="path-1"></path>
        <filter x="-9.5%" y="-5.5%" width="119.0%" height="119.0%" filterUnits="objectBoundingBox" id="filter-2">
            <feOffset dx="0" dy="12" in="SourceAlpha" result="shadowOffsetOuter1"></feOffset>
            <feGaussianBlur stdDeviation="7.5" in="shadowOffsetOuter1" result="shadowBlurOuter1"></feGaussianBlur>
            <feColorMatrix values="0 0 0 0 0   0 0 0 0 0   0 0 0 0 0  0 0 0 0.17 0" type="matrix" in="shadowBlurOuter1"></feColorMatrix>
        </filter>
    </defs>
    <g id="Symbols" stroke="none" stroke-width="1" fill="none" fill-rule="evenodd">
        <g id="Logo/Neutron/Normal" transform="translate(15.000000, 3.000000)">
            <g id="Clip-5">
                <use fill="black" fill-opacity="1" filter="url(#filter-2)" xlink:href="#path-1"></use>
                <use fill="#939393" fill-rule="evenodd" xlink:href="#path-1"></use>
            </g>
        </g>
    </g>
</svg>